<?xml version="1.0" ?><svg id="Layer_1" style="enable-background:new 0 0 512 512;" version="1.1" viewBox="0 0 512 512" xml:space="preserve" xmlns="http://www.w3.org/2000/svg" xmlns:xlink="http://www.w3.org/1999/xlink"><style type="text/css">
	.st0{fill:#EF917B;}
	.st1{fill:#E96B4E;}
	.st2{fill:#D7D5C1;}
	.st3{fill:#EBEAE0;}
	.st4{fill:#F5F4EF;}
	.st5{fill-rule:evenodd;clip-rule:evenodd;fill:#EBEAE0;}
	.st6{fill-rule:evenodd;clip-rule:evenodd;fill:#D7D5C1;}
	.st7{fill:#B24E10;}
	.st8{fill:#57130F;}
</style><g id="XMLID_1_"><g id="XMLID_2092_"><path class="st0" d="M103.5,5C88.2,41.8,46.5,207.8,75.3,342.3C96.4,441,169.1,507,169.1,507h100.7L268.2,5    H103.5L103.5,5z" id="XMLID_2656_"/><path class="st1" d="M268.8,205.9L253.5,172H88.2c0,48,41.8,99.5,92.3,117s-64.3,76-64.3,76    c48.3,37.3,96.7-11,109.3-1.1c12.6,9.9,44,71.1,44,71.1L268.8,205.9L268.8,205.9z" id="XMLID_2653_"/><path class="st2" d="M390.2,430.6c-10,51.9-100,76.4-120.4,76.4c-20.4,0-62.6,0-63.6-22s39-41.2,39-41.2    c-16.5-23.8-26-67.8,7-85.8c0,0-9.7-20.7-21.8-24c-25.6-7-94.7,44.5-114.2,31c-20.8-14.4,7.1-36.1,34-63c16.3-16.3,35-66,35-66    l88.4-29.8l124.3,148.5L390.2,430.6L390.2,430.6z" id="XMLID_2652_"/><path class="st3" d="M271.7,121.1c26,0,16.6-17.4,40.5-12.3c0,0,4.9-12.3,8.6-43.8c3.4-29.3,4.8-46.3,4.8-46.3    c-13-2.3-27-13.8-57.3-13.8c-31.1,0-54.5,37-83,37c-30.3,0-47.7-37-81.7-37c-34,0-47.9,20-64,20c0,0,0.1,12.5,7.6,45    c7.8,34,15.1,48.6,15.1,48.6c13.7-4.2,22,6.4,35.1,6.4L271.7,121.1L271.7,121.1z" id="XMLID_2644_"/><path class="st2" d="M320.7,65.1c1.6-14,2.8-25.2,3.6-33.1c-10.4-4.5-26.1-9.9-36.1-7c0,0-35,7.5-52.9,39.9    l17.2,56.7l19.2-0.4c26,0,16.6-17.4,40.5-12.3C312.1,108.8,317,96.5,320.7,65.1" id="XMLID_2643_"/><path class="st2" d="M130,70c-4.8-38.5-52.3-41.8-52.3-41.8C68.3,28,51,34.5,41,38.6c1.1,7.2,2.9,17.4,6.1,31.4    c7.8,34,15.1,48.6,15.1,48.6c13.7-4.2,22,6.4,35.1,6.4l26.2-0.6L130,70L130,70z" id="XMLID_2642_"/><path class="st3" d="M282.2,172c0-53.6-43.4-130-97-130c-53.6,0-97,76.4-97,130c0,53.6,43.4,64,97,64    C238.7,236,282.2,225.6,282.2,172" id="XMLID_2641_"/><path class="st4" d="M225.5,196c0-22.1-17.9-40-40-40c-22.1,0-40,17.9-40,40c0,22.1,17.9,40,40,40    C207.6,236,225.5,218.1,225.5,196" id="XMLID_2640_"/><polygon class="st5" id="XMLID_2639_" points="299.3,25.3 324.1,28.5 322.8,38.5 298,35.2 299.3,25.3   "/><polygon class="st5" id="XMLID_2638_" points="297.7,44.1 324.1,47.8 322.7,57.7 296.3,54 297.7,44.1   "/><polygon class="st5" id="XMLID_2636_" points="295.4,65.1 321.4,68.8 320,78.7 294,74.9 295.4,65.1   "/><polygon class="st5" id="XMLID_2635_" points="292.7,83.5 317.2,86.4 316.1,96.3 291.6,93.5 292.7,83.5   "/><polygon class="st5" id="XMLID_2633_" points="69,26.6 71.4,36.4 42.8,43.4 40.4,33.6 69,26.6   "/><polygon class="st5" id="XMLID_2632_" points="69.1,46.7 71.2,56.5 43.6,62.4 41.5,52.7 69.1,46.7   "/><polygon class="st5" id="XMLID_2631_" points="68.7,69.9 71.6,79.5 48.5,86.5 45.6,76.9 68.7,69.9   "/><polygon class="st5" id="XMLID_2629_" points="75.9,91.3 79.4,100.7 57.6,108.7 54.2,99.3 75.9,91.3   "/><path class="st2" d="M198.7,219c-5.6,0-10.3-3.2-13.3-6.3c-4.1,3.9-8.5,5.9-13.2,5.6    c-10-0.5-16.1-10.4-16.8-11.5l8.6-5.1c1,1.7,4.8,6.5,8.7,6.7c3.4,0.1,6.7-3.3,8.8-6.3c1-1.3,2.6-2.1,4.2-2.1    c1.7,0.1,3.2,0.8,4.1,2.2c1.4,2.2,5.5,6.8,9,6.8h0c2.8,0,5.5-3.2,7.2-6l8.5,5.2C210,215.4,204.7,219,198.7,219L198.7,219    L198.7,219z" id="XMLID_2628_"/><polygon class="st6" id="XMLID_2626_" points="180.5,183 190.5,183 190.5,205 180.5,205 180.5,183   "/><path class="st4" d="M136.3,144.5c-6.5,0-11.3-8.4-11.3-20c0-11.6,4.7-20,11.3-20c6.5,0,11.3,8.4,11.3,20    C147.5,136.1,142.8,144.5,136.3,144.5" id="XMLID_2625_"/><path class="st7" d="M140,134.5c-4.3,0-7.5-4.2-7.5-10c0-5.8,3.2-10,7.5-10c4.3,0,7.5,4.2,7.5,10    C147.5,130.3,144.4,134.5,140,134.5" id="XMLID_2624_"/><path class="st4" d="M234.1,144.5c-6.5,0-11.3-8.4-11.3-20c0-11.6,4.7-20,11.3-20c6.5,0,11.3,8.4,11.3,20    C245.3,136.1,240.6,144.5,234.1,144.5" id="XMLID_2581_"/><path class="st7" d="M230.3,134.5c-4.3,0-7.5-4.2-7.5-10c0-5.8,3.2-10,7.5-10c4.3,0,7.5,4.2,7.5,10    C237.8,130.3,234.7,134.5,230.3,134.5" id="XMLID_2580_"/><path class="st3" d="M400,265.9c40.8,4.9,67.5,43.1,67.5,76.1s-21.3,50-31.7,56.3c-10.3,6.3-30.7,42.3-50.3,31.2    c-17.7-10,2.7-37.9,2.7-37.9s-20.3-30-3-48.2c0,0-21-19.2-45.7-10.5c-13.3,4.7-46,13.3-51.7-4c-5.5-16.8,13-16.9,21.3-24    c12.6-10.7,14-28,14-28L400,265.9L400,265.9z" id="XMLID_2578_"/><path class="st2" d="M389.3,346.3l-8.2-5.7c8.6-12.5,21.9-16.3,22.5-16.5l2.7,9.6    C406.1,333.8,395.8,336.9,389.3,346.3" id="XMLID_2561_"/><path class="st3" d="M254.6,362.4l-4.9-8.7c28.2-15.7,54.8-0.6,55.9,0l-5,8.7    C299.7,361.8,277.7,349.5,254.6,362.4" id="XMLID_2413_"/><path class="st7" d="M206.5,164c0-17.7-9.4-39-21-39c-11.6,0-21,21.3-21,39c0,17.7,9.4,25,21,25    C197.1,189,206.5,181.7,206.5,164" id="XMLID_2411_"/><path class="st3" d="M415,167.9c-23.2-8.4-20.1,8-51.8-3.6c-31.7-11.5-18.8-22.1-41.9-30.6    c-14.9-5.4-34.6,0-39.4,14.4c-2.7,8-0.2,19,9.9,32.3l115.9,42.2c16.2-3.7,25.2-10.5,28.4-18.4C441.5,190.1,429.9,173.3,415,167.9" id="XMLID_2409_"/><path class="st2" d="M325,173c2.9-35-33.4-36.6-33.4-36.6c-4.5,2.8-8.1,6.7-9.7,11.8c-2.7,8-0.2,19,9.9,32.3    l24,8.7C320.8,186.2,324.4,181.1,325,173" id="XMLID_2408_"/><path class="st2" d="M386.5,196c-5.3,5.8-7,11.5-6.3,16.7l27.4,10c16.2-3.7,25.2-10.5,28.4-18.4    c2.5-6.3,1.5-13.2-1.6-19.3C434.3,184.9,412.2,167.7,386.5,196" id="XMLID_2406_"/><path class="st3" d="M403.8,257.5c13.2-36.3-4.2-80.1-40.5-93.3c-36.3-13.2-77.8,9.1-91,45.4    c-13.2,36.3,13.7,54.1,50,67.3C358.5,290.2,390.6,293.8,403.8,257.5" id="XMLID_2400_"/><path class="st4" d="M363,261.7c-4.5,12.3-21.7,17.3-38.5,11.1c-16.8-6.1-26.8-21-22.3-33.3s21.7-17.2,38.5-11.1    C357.4,234.5,367.4,249.4,363,261.7" id="XMLID_2387_"/><path class="st2" d="M338.9,270.9c-1.5,0-2.8-0.3-3.9-0.6c-3.8-1.3-6.3-4.4-7.8-7.2c-3.7,1.4-7.1,1.4-10.3,0    c-7.3-3.1-9-12.1-9.1-13.1l9.9-1.7c0.3,1.5,1.4,4.9,3.2,5.7c1.2,0.5,3.5-0.2,6.1-2c1.4-0.9,3.1-1.1,4.6-0.5c1.5,0.6,2.7,1.9,3,3.5    c0.5,2.1,2.1,5.3,3.7,5.9c1.1,0.4,3-0.4,5.1-2.2l6.2,7.8C345.5,269.9,341.8,270.9,338.9,270.9" id="XMLID_2383_"/><polygon class="st6" id="XMLID_2381_" points="331.5,236.8 340.9,240.2 334.4,258 325,254.6 331.5,236.8   "/><path class="st7" d="M317.3,206.1c-0.7,0-1.5-0.1-2.2-0.4c-4.1-1.5-5.6-6.5-3.6-12c2-5.4,6.4-8.3,10.5-6.8    c4.1,1.5,5.6,6.5,3.6,12C324,203.4,320.7,206.1,317.3,206.1" id="XMLID_2377_"/><path class="st7" d="M375.6,227.3c-0.7,0-1.5-0.1-2.2-0.4c-4.1-1.5-5.6-6.5-3.6-12c2-5.4,6.4-8.3,10.5-6.8    c4.1,1.5,5.6,6.5,3.6,12C382.2,224.6,379,227.3,375.6,227.3" id="XMLID_2376_"/><path class="st7" d="M325.9,222.9c-4.3,11.9,0.1,19.2,7.9,22.1c7.8,2.8,15.9,0.1,20.3-11.8    c4.3-11.9-0.2-19.2-7.9-22C338.4,208.3,330.3,211,325.9,222.9" id="XMLID_2374_"/></g><g id="XMLID_5121_"><g id="XMLID_2000_"><path class="st8" d="M184.7,241c-32.3,0-54.8-4-70.9-12.5c-20.6-10.9-31.1-29.9-31.1-56.5     c0-18.4,4.9-39.7,13.9-60l9.2,4c-8.4,19.1-13,39-13,56c0,41.9,26.7,59,92,59s92-17.1,92-59c0-25.8-10.6-57.3-27.5-82.3     c-10.9-16-33.7-42.7-64.5-42.7c-24.6,0-49.8,18.1-68.9,49.6l-8.5-5.2c21-34.6,49.2-54.4,77.4-54.4c26.2,0,52.1,16.7,72.7,47.1     c18.1,26.5,29.3,60.2,29.3,87.9c0,26.6-10.5,45.6-31.1,56.5C239.5,237,217,241,184.7,241z" id="XMLID_3202_"/></g><g id="XMLID_1113_"><path class="st8" d="M271,126.1v-10c11,0,13.9-3.1,17.3-6.3c5.3-5.1,10.5-8.8,24.3-5.8l-2.1,9.8     c-9.7-2.1-11.7-0.2-15.3,3.2C291.2,120.8,286,126.1,271,126.1z" id="XMLID_3201_"/></g><g id="XMLID_1109_"><path class="st8" d="M184.7,47c-16.4,0-29.1-9.5-41.4-18.7C130.7,18.9,118.8,10,103,10     c-18.9,0-30.9,6.5-41.6,12.2C53.6,26.4,46.8,30,39,30V20c5.3,0,10.8-2.9,17.7-6.7C67.8,7.4,81.6,0,103,0     c19.1,0,32.9,10.3,46.3,20.3c11.5,8.6,22.3,16.7,35.4,16.7c12.4,0,24.2-8.3,36.8-17c14.1-9.8,28.7-20,46.2-20     c21.1,0,34.4,5.3,45.1,9.5c4.9,1.9,9.1,3.6,13,4.3l-1.7,9.9c-4.9-0.8-9.6-2.7-15-4.9c-9.9-3.9-22.2-8.8-41.4-8.8     c-14.3,0-27.6,9.3-40.5,18.2C213.9,37.4,200.2,47,184.7,47z" id="XMLID_3200_"/></g><g id="XMLID_1094_"><path class="st8" d="M97,130c-7,0-12.1-2.2-16.9-4.1c-6-2.4-10.8-4.3-16.9-2.4l-2.9-9.6     c9.5-2.9,17.1,0.1,23.6,2.7c4.3,1.7,8.1,3.4,13.1,3.4V130z" id="XMLID_3199_"/></g><g id="XMLID_1093_"><rect class="st8" height="10" id="XMLID_3198_" transform="matrix(0.9915 0.1302 -0.1302 0.9915 6.7902 -40.148)" width="25" x="298.1" y="26.9"/></g><g id="XMLID_1095_"><rect class="st8" height="10" id="XMLID_3196_" transform="matrix(0.9903 0.139 -0.139 0.9903 10.0815 -42.5567)" width="26.7" x="296.4" y="45.9"/></g><g id="XMLID_1096_"><rect class="st8" height="10" id="XMLID_3195_" transform="matrix(0.9898 0.1428 -0.1428 0.9898 13.4063 -43.113)" width="26.3" x="294" y="66.9"/></g><g id="XMLID_1097_"><rect class="st8" height="10" id="XMLID_3194_" transform="matrix(0.9933 0.1152 -0.1152 0.9933 12.3847 -34.4182)" width="24.7" x="291.6" y="84.9"/></g><g id="XMLID_1105_"><path class="st8" d="M239.1,67.3l-8.8-4.8c18.8-34,54.7-42,56.2-42.3l2.1,9.8C288.4,30,255.7,37.4,239.1,67.3z" id="XMLID_3192_"/></g><g id="XMLID_1102_"><rect class="st8" height="29.4" id="XMLID_3191_" transform="matrix(0.2382 0.9712 -0.9712 0.2382 76.1945 -27.1407)" width="10" x="50.4" y="20.3"/></g><g id="XMLID_1110_"><rect class="st8" height="28.3" id="XMLID_3183_" transform="matrix(0.2116 0.9774 -0.9774 0.2116 97.3765 -11.5711)" width="10" x="50.9" y="40.4"/></g><g id="XMLID_1111_"><rect class="st8" height="24.1" id="XMLID_3182_" transform="matrix(0.2886 0.9575 -0.9575 0.2886 116.2028 -1.186358e-002)" width="10" x="53.1" y="66.1"/></g><g id="XMLID_1112_"><rect class="st8" height="23.2" id="XMLID_3181_" transform="matrix(0.3449 0.9386 -0.9386 0.3449 137.2844 3.2945)" width="10" x="61.3" y="88.4"/></g><g id="XMLID_1114_"><path class="st8" d="M124.5,70.6c-4.3-34-47.3-37.4-47.7-37.4l0.7-10c0.5,0,12.9,0.9,26.1,6.9     c18,8.1,28.7,21.7,30.9,39.2L124.5,70.6z" id="XMLID_3180_"/></g><g id="XMLID_1116_"><rect class="st8" height="16" id="XMLID_3179_" width="10" x="180" y="189"/></g><g id="XMLID_1118_"><path class="st8" d="M139.5,134.5c-4.3,0-7.5-4.2-7.5-10s3.2-10,7.5-10s7.5,4.2,7.5,10S143.8,134.5,139.5,134.5     z" id="XMLID_3178_"/></g><g id="XMLID_1119_"><path class="st8" d="M229.8,134.5c-4.3,0-7.5-4.2-7.5-10s3.2-10,7.5-10s7.5,4.2,7.5,10S234.2,134.5,229.8,134.5     z" id="XMLID_3175_"/></g><g id="XMLID_626_"><g id="XMLID_1126_"><path class="st8" d="M363.8,291.3c-11.8,0-25.9-3.1-43.8-9.6c-22.1-8.1-36.6-16.4-45.6-26.4      c-11.7-12.9-14.1-28.9-7.4-47.4c6.8-18.7,21.1-34.8,39.3-44c18.8-9.6,39.5-11.2,58.2-4.4c18.7,6.8,33.5,21.3,41.7,40.7      c7.9,18.8,8.6,40.3,1.8,59c-6.7,18.5-18.9,29.2-36.1,31.6C369.3,291.1,366.6,291.3,363.8,291.3z M340.8,165.3      c-10,0-20.2,2.5-29.9,7.4c-15.9,8.1-28.5,22.2-34.4,38.6c-5.5,15.2-3.8,27,5.4,37.3c7.8,8.7,21,16.2,41.6,23.7      c20.5,7.5,35.5,10.2,47.1,8.6c13.6-1.9,22.6-9.9,28.1-25.1l0,0c6-16.4,5.4-35.2-1.6-51.7c-7.1-16.9-19.9-29.4-36-35.2      C354.5,166.5,347.7,165.3,340.8,165.3z" id="XMLID_3170_"/></g><g id="XMLID_1125_"><path class="st8" d="M338.9,251c-2.4,0-4.8-0.4-7.3-1.3c-5.4-2-9.4-5.6-11.4-10.4c-2.2-5.1-2-11.2,0.5-18.1      c0,0,0,0,0,0c2.5-6.9,6.3-11.6,11.3-14.2c4.6-2.4,10-2.6,15.4-0.6c5.4,2,9.4,5.5,11.4,10.3c2.2,5.1,2,11.2-0.5,18.1      c-2.5,6.9-6.3,11.6-11.3,14.2C344.5,250.4,341.7,251,338.9,251z M330.1,224.6c-1.6,4.4-1.8,8.1-0.7,10.8      c0.9,2.2,2.8,3.9,5.6,4.9c2.8,1,5.3,1,7.4-0.1c2.6-1.3,4.8-4.3,6.4-8.7c1.6-4.3,1.8-8.1,0.7-10.8c-0.9-2.2-2.8-3.8-5.6-4.9      c-2.8-1-5.3-1-7.4,0.1C333.9,217.3,331.7,220.3,330.1,224.6L330.1,224.6z" id="XMLID_3166_"/></g><g id="XMLID_1124_"><path class="st8" d="M338.4,270.9c-1.5,0-2.8-0.3-3.9-0.6c-3.8-1.3-6.3-4.4-7.8-7.2c-3.7,1.4-7.1,1.4-10.3,0      c-7.3-3.1-9-12.1-9.1-13.1l9.9-1.7c0.3,1.5,1.4,4.9,3.2,5.7c1.2,0.5,3.5-0.2,6.1-2c1.4-0.9,3.1-1.1,4.6-0.5      c1.5,0.6,2.7,1.9,3,3.5c0.5,2.1,2.1,5.3,3.7,5.9c1.1,0.4,3-0.4,5.1-2.2l6.2,7.8C345,269.9,341.3,270.9,338.4,270.9z" id="XMLID_3165_"/></g><g id="XMLID_1123_"><rect class="st8" height="12" id="XMLID_3164_" transform="matrix(0.9397 0.342 -0.342 0.9397 105.699 -98.1882)" width="10" x="326.3" y="244.6"/></g><g id="XMLID_1122_"><path class="st8" d="M316.8,206.1c-0.7,0-1.5-0.1-2.2-0.4c-4.1-1.5-5.6-6.5-3.6-12c2-5.4,6.4-8.3,10.5-6.8      c4.1,1.5,5.6,6.5,3.6,12C323.5,203.4,320.2,206.1,316.8,206.1z" id="XMLID_3163_"/></g><g id="XMLID_1120_"><path class="st8" d="M375.1,227.3c-0.7,0-1.5-0.1-2.2-0.4c-4.1-1.5-5.6-6.5-3.6-12c2-5.4,6.4-8.3,10.5-6.8      c4.1,1.5,5.6,6.5,3.6,12C381.7,224.6,378.5,227.3,375.1,227.3z" id="XMLID_3162_"/></g><g id="XMLID_672_"><path class="st8" d="M408.2,227.5l-2.2-9.7c13.3-3,22.1-8.5,24.8-15.4c2.1-5.3,0.7-10.6-0.8-14      c-3.2-7.1-9.8-13.1-17.2-15.8c-9.2-3.3-13.2-2.3-18.3-0.9c-7,1.9-14.9,4.1-33.5-2.7s-23.3-13.5-27.4-19.5      c-3-4.3-5.4-7.7-14.6-11.1c-7.4-2.7-16.4-2.3-23.3,1.1c-3.4,1.6-7.8,4.7-9.7,10.2c-2.3,7,0.9,16.9,9.1,27.7l-8,6      c-13.2-17.4-13.1-29.7-10.6-36.9c2.3-6.8,7.5-12.5,14.8-16c9.3-4.5,21.2-5.1,31.1-1.5c12.2,4.4,15.8,9.7,19.4,14.8      c3.6,5.2,7,10.1,22.6,15.8c15.6,5.7,21.3,4.1,27.5,2.4c6-1.6,12.1-3.3,24.3,1.1c9.9,3.6,18.6,11.7,22.9,21.1      c3.3,7.3,3.7,15.1,1,21.8C437.3,213.1,429.5,222.6,408.2,227.5z" id="XMLID_3161_"/></g></g><g id="XMLID_1079_"><path class="st8" d="M269.3,512c-21.9,0-67.4,0-68.6-26.8c-0.9-20.3,25.2-37,36.8-43.4     c-9.4-15.7-16-38.4-11.4-58c2.7-11.6,9.3-21.1,18.9-27.7c-3.6-6.2-10.1-15.6-16.5-17.4c-10.5-2.9-33,7.3-52.8,16.2     c-27,12.2-50.3,22.7-62.9,14c-5.7-4-8.9-8.8-9.3-14.4c-1.1-13.6,13.4-27.8,31.9-45.7c3.5-3.4,7.1-6.9,10.7-10.5     c15.3-15.4,33.7-63.7,33.9-64.2l9.4,3.5c-0.8,2.1-19.3,50.9-36.1,67.8c-3.6,3.6-7.3,7.2-10.8,10.6     c-15.2,14.8-29.6,28.8-28.9,37.7c0.1,0.9,0.3,3.8,5,7c7.9,5.5,32.9-5.9,53.1-14.9c23.5-10.6,45.6-20.6,59.6-16.8     c14,3.8,24,24.4,25,26.7c1.1,2.4,0.2,5.2-2.1,6.5c-9.6,5.2-15.7,13.2-18.2,23.8c-4.4,18.6,3.3,40.9,12.9,54.7     c0.8,1.2,1.1,2.7,0.7,4.1s-1.3,2.6-2.7,3.2c-10.3,5-36.9,21.2-36.2,36.5C211.4,502,252,502,269.3,502     c14.8,0,83.2-16.8,107.8-54.2l8.3,5.5C358.8,493.7,287.3,512,269.3,512z" id="XMLID_3160_"/></g><g id="XMLID_696_"><path class="st8" d="M392.7,436.7c-3.3,0-6.8-0.8-10.2-2.8c-4.9-2.8-8.2-7.1-9.3-12.4     c-2.4-11.2,4.8-24.2,8.5-30c-4.6-7.9-15.4-30.1-4.1-47.2c-6.6-4.5-21.1-12.2-36.9-6.7c-9.8,3.4-34.3,10.7-48.5,3.7     c-4.7-2.3-7.9-6-9.5-10.8c-5.3-16.2,6.9-21.5,14.9-25.1c3.1-1.4,6-2.7,8-4.3c10.8-9.2,12.3-24.5,12.3-24.7l10,0.8     c-0.1,0.8-1.8,19.5-15.8,31.4c-3,2.6-6.8,4.2-10.4,5.8c-9.5,4.2-11.7,6-9.4,12.8c0.7,2.3,2.2,3.8,4.5,5     c8.9,4.4,27.5,0.5,40.8-4.1c27.2-9.5,49.8,10.7,50.7,11.5c1,0.9,1.6,2.2,1.6,3.5s-0.5,2.6-1.4,3.6c-14.3,15,3.3,41.6,3.5,41.9     c1.2,1.7,1.1,4.1-0.1,5.8c-3,4.1-10.4,16.7-8.7,24.8c0.5,2.5,2,4.4,4.4,5.8c9.8,5.5,20.8-5.5,33.1-19.3     c4.6-5.2,8.6-9.6,12.1-11.8c10.9-6.7,29.3-22.4,29.3-52.1c0-30.7-25.4-66.5-63.1-71.1l1.2-9.9c20.2,2.4,38.8,12.8,52.3,29.3     c12.4,15.1,19.6,33.9,19.6,51.7c0,35.9-23.8,54.3-34.1,60.6c-2.3,1.4-6,5.5-9.9,9.9C419.1,422.5,406.5,436.7,392.7,436.7z" id="XMLID_3159_"/></g><g id="XMLID_704_"><path class="st8" d="M388.8,346.3l-8.2-5.7c8.6-12.5,21.9-16.3,22.5-16.5l2.7,9.6     C405.6,333.8,395.3,336.9,388.8,346.3z" id="XMLID_3158_"/></g><g id="XMLID_700_"><path class="st8" d="M254.1,362.4l-4.9-8.7c28.2-15.7,54.8-0.6,55.9,0l-5,8.7     C299.2,361.8,277.2,349.5,254.1,362.4z" id="XMLID_3157_"/></g><g id="XMLID_1115_"><path class="st8" d="M185,194c-12.6,0-26-7.9-26-30c0-18.4,9.9-44,26-44s26,25.6,26,44     C211,186.1,197.6,194,185,194z M185,130c-6.8,0-16,16.8-16,34c0,13.1,5.5,20,16,20s16-6.9,16-20C201,146.8,191.8,130,185,130z" id="XMLID_2978_"/></g><g id="XMLID_1117_"><path class="st8" d="M198.2,219c-5.6,0-10.3-3.2-13.3-6.3c-4.1,3.9-8.5,5.8-13.2,5.6     c-10-0.5-16.1-10.4-16.8-11.5l8.6-5.1c1,1.7,4.8,6.5,8.7,6.7c3.4,0.1,6.7-3.3,8.8-6.3c1-1.3,2.6-2.1,4.2-2.1     c1.7,0.1,3.2,0.8,4.1,2.2c1.4,2.2,5.5,6.8,9,6.8c0,0,0,0,0,0c2.8,0,5.5-3.2,7.2-6l8.5,5.2C209.5,215.4,204.2,219,198.2,219     C198.2,219,198.2,219,198.2,219z" id="XMLID_2976_"/></g><g id="XMLID_1760_"><path class="st8" d="M269,512H168.6c-1.2,0-2.4-0.5-3.4-1.3c-0.8-0.7-18.8-17.2-39.7-46.1     c-19.3-26.7-44.6-69.4-55.7-121.2C52.9,264,60.6,177,70.1,118l9.9,1.6c-9.4,58.2-17,143.8-0.3,221.7c19,88.6,80.9,151.1,91,160.8     H269V512z" id="XMLID_2975_"/></g><g id="XMLID_1745_"><rect class="st8" height="10" id="XMLID_2974_" width="165" x="103"/></g></g></g></svg>